<svg width="900" height="560" viewBox="0 0 900 560" fill="none" xmlns="http://www.w3.org/2000/svg">
  <g stroke="#c8a76d" stroke-width="2" opacity="0.3">
    <path d="M90 180 C160 120 260 120 320 180 C360 220 420 230 470 210 C520 190 580 150 640 160 C700 170 740 210 780 250"/>
    <path d="M130 310 C210 260 320 250 380 300 C420 330 470 340 520 320 C570 300 620 260 680 270"/>
    <path d="M160 420 C220 380 300 370 360 410 C400 440 450 450 500 430 C560 405 610 370 660 380"/>
    <path d="M560 120 C600 90 660 90 700 120 C730 140 760 170 790 210"/>
  </g>
  <g stroke="#c8a76d" stroke-width="1.5" opacity="0.22">
    <path d="M420 120 C460 100 520 100 560 120"/>
    <path d="M480 360 C520 340 580 340 620 360"/>
  </g>
</svg>
