<svg width="420" height="240" viewBox="0 0 420 240" fill="none" xmlns="http://www.w3.org/2000/svg">
  <g opacity="0.9">
    <path d="M40 200 C90 150 140 130 210 120" stroke="#c8a76d" stroke-width="3" stroke-linecap="round"/>
    <path d="M80 210 C110 190 140 175 190 165" stroke="#d6c2a4" stroke-width="2" stroke-linecap="round"/>
  </g>
  <g>
    <path d="M150 70 C170 60 200 60 220 70 C240 80 250 100 244 118 C238 136 220 150 198 156 C176 150 158 136 152 118 C146 100 150 80 150 70 Z" fill="#e9decf"/>
    <circle cx="198" cy="112" r="8" fill="#c8a76d"/>
    <path d="M210 52 C226 46 244 46 256 58 C268 70 270 92 260 108 C250 124 230 134 212 136 C202 126 196 112 198 96 C200 80 206 64 210 52 Z" fill="#efe7dc"/>
    <circle cx="230" cy="92" r="6" fill="#c8a76d"/>
  </g>
  <g>
    <path d="M100 110 C118 100 140 100 154 110 C168 120 170 138 160 150 C150 162 130 170 114 172 C106 162 102 150 104 138 C106 126 108 116 100 110 Z" fill="#efe7dc"/>
    <circle cx="128" cy="136" r="5" fill="#c8a76d"/>
  </g>
  <g>
    <path d="M260 120 C280 112 302 114 314 126 C326 138 326 156 314 168 C302 180 282 186 266 186 C256 176 252 164 254 150 C256 136 258 128 260 120 Z" fill="#e9decf"/>
    <circle cx="286" cy="152" r="5" fill="#c8a76d"/>
  </g>
  <g>
    <path d="M70 160 C80 150 96 146 110 148 C120 150 128 160 124 170 C120 180 106 186 92 188 C86 180 82 172 82 164 C82 156 74 166 70 160 Z" fill="#f3ece4"/>
  </g>
  <g>
    <path d="M230 150 C250 138 278 136 300 144 C314 150 322 164 316 174 C310 184 292 190 270 190 C254 180 244 170 242 160 C240 150 234 156 230 150 Z" fill="#f3ece4"/>
  </g>
</svg>
